<?xml version="1.0" encoding="UTF-8"?>
<svg id="Layer_2" data-name="Layer 2" xmlns="http://www.w3.org/2000/svg" viewBox="0 0 230.84 30.54">
  <defs>
    <style>
      .cls-1 {
        fill: #fff;
      }
    </style>
  </defs>
  <g id="Layer_1-2" data-name="Layer 1">
    <g>
      <g>
        <path class="cls-1" d="M4.8,18.39H.69c0-2.02.47-3.36,1.41-4.04s2.79-1.02,5.57-1.02c3.02,0,5.07.42,6.13,1.25s1.6,2.42,1.6,4.76v10.99h-4.03l.19-2.3-.11-.02c-.77,1.68-2.56,2.51-5.36,2.51-4.07,0-6.1-1.73-6.1-5.19s2.08-5.24,6.24-5.24c2.78,0,4.46.64,5.06,1.92h.07v-2.72c0-1.31-.23-2.18-.69-2.61s-1.39-.64-2.81-.64c-2.05,0-3.08.79-3.08,2.36ZM7.49,22.8c-2.27,0-3.41.79-3.41,2.36,0,1.09.23,1.8.7,2.14s1.45.51,2.95.51c2.45,0,3.67-.83,3.67-2.48s-1.31-2.53-3.92-2.53Z"/>
        <path class="cls-1" d="M34.33,13.52v16.8h-4.03l.23-2.88-.07-.02c-.79,2.06-2.59,3.09-5.41,3.09-3.81,0-5.71-1.9-5.71-5.71v-11.29h4.03v10.32c0,1.43.2,2.37.6,2.82s1.22.68,2.48.68c2.58,0,3.87-1.55,3.87-4.64v-9.18h4.03Z"/>
        <path class="cls-1" d="M49.11,23.91h4.01v.58l-.25,2.55c-.49,2.32-2.89,3.48-7.21,3.48-3.16,0-5.27-.57-6.31-1.71s-1.56-3.44-1.56-6.9.52-5.65,1.56-6.82,3.07-1.76,6.08-1.76,4.88.42,5.91,1.27,1.55,2.46,1.55,4.84h-3.99c0-1.96-1.13-2.94-3.39-2.94-1.61,0-2.61.31-3.02.93s-.62,2.14-.62,4.57.23,3.82.68,4.42,1.56.91,3.31.91c1.38,0,2.27-.21,2.66-.62s.59-1.35.59-2.8Z"/>
        <path class="cls-1" d="M66.92,13.52v3.06h-6.47v8.44c0,1.56.59,2.34,1.78,2.34,1.3,0,1.95-.94,1.95-2.83v-.67h3.43v.84c0,.77-.02,1.44-.07,1.99-.22,2.57-2.13,3.85-5.73,3.85s-5.38-1.65-5.38-4.94v-9.02h-2.18v-3.06h2.18v-3.76h4.03v3.76h6.47Z"/>
        <path class="cls-1" d="M73.85,6.33v3.36h-4.03v-3.36h4.03ZM73.85,13.52v16.8h-4.03V13.52h4.03Z"/>
        <path class="cls-1" d="M85.18,13.33c3.25,0,5.37.52,6.38,1.56s1.51,3.23,1.51,6.57c0,3.73-.49,6.17-1.48,7.33s-3.06,1.74-6.22,1.74c-3.43,0-5.66-.54-6.67-1.62s-1.52-3.45-1.52-7.12.5-5.82,1.49-6.87,3.16-1.58,6.5-1.58ZM85.15,16.51c-1.68,0-2.74.3-3.2.91s-.69,2.01-.69,4.23c0,2.53.22,4.11.65,4.75s1.52.95,3.25.95,2.73-.33,3.17-1,.66-2.27.66-4.82c0-2.14-.23-3.52-.69-4.11s-1.51-.9-3.16-.9Z"/>
        <path class="cls-1" d="M96.43,13.52h3.99l-.16,2.83.09.02c.79-2.03,2.54-3.04,5.27-3.04,3.97,0,5.96,1.85,5.96,5.55v11.44h-4.03v-10.76l-.09-1.18c-.19-1.25-1.17-1.88-2.95-1.88-2.71,0-4.06,1.28-4.06,3.85v9.97h-4.03V13.52Z"/>
        <path class="cls-1" d="M167.91,13.33c3.25,0,5.37.52,6.38,1.56s1.51,3.23,1.51,6.57c0,3.73-.49,6.17-1.48,7.33s-3.06,1.74-6.22,1.74c-3.43,0-5.66-.54-6.67-1.62s-1.52-3.45-1.52-7.12.5-5.82,1.49-6.87,3.16-1.58,6.5-1.58ZM167.87,16.51c-1.68,0-2.74.3-3.2.91s-.69,2.01-.69,4.23c0,2.53.22,4.11.65,4.75s1.52.95,3.25.95,2.73-.33,3.17-1,.66-2.27.66-4.82c0-2.14-.23-3.52-.69-4.11s-1.51-.9-3.16-.9Z"/>
        <path class="cls-1" d="M194.08,13.52v16.8h-4.03l.23-2.88-.07-.02c-.79,2.06-2.59,3.09-5.41,3.09-3.81,0-5.71-1.9-5.71-5.71v-11.29h4.03v10.32c0,1.43.2,2.37.6,2.82s1.22.68,2.48.68c2.58,0,3.87-1.55,3.87-4.64v-9.18h4.03Z"/>
        <path class="cls-1" d="M212.19,18.15h-3.94l-.05-.32c-.08-.81-.31-1.31-.69-1.51s-1.3-.3-2.77-.3c-2.1,0-3.15.68-3.15,2.04,0,.93.18,1.48.55,1.65s1.62.32,3.75.42c2.87.14,4.74.52,5.61,1.14s1.3,1.89,1.3,3.81c0,2.05-.58,3.47-1.73,4.26s-3.23,1.19-6.21,1.19-4.83-.36-5.89-1.07-1.58-2.05-1.58-4.01v-.42h4.18c-.06.23-.09.42-.11.56-.16,1.49.98,2.23,3.45,2.23s3.81-.74,3.81-2.21-.8-2.13-2.39-2.13c-3.6,0-5.97-.34-7.11-1.02s-1.71-2.09-1.71-4.24c0-1.92.52-3.22,1.56-3.9s3.05-1.02,6.01-1.02c2.8,0,4.68.33,5.65.98s1.45,1.94,1.45,3.85Z"/>
        <path class="cls-1" d="M226.79,24.95h4.04v.65c0,3.28-2.46,4.92-7.38,4.92-3.34,0-5.53-.57-6.56-1.71s-1.55-3.54-1.55-7.22c0-3.27.54-5.47,1.62-6.59s3.18-1.69,6.31-1.69,5.01.55,6.03,1.64,1.53,3.25,1.53,6.46v1.23h-11.37c-.02.38-.04.62-.04.74,0,1.65.25,2.75.76,3.3s1.53.83,3.05.83,2.44-.16,2.88-.48.67-1.02.67-2.08ZM226.83,20.19l-.02-.67c0-1.34-.23-2.2-.69-2.6s-1.47-.6-3.01-.6-2.48.24-2.93.72-.68,1.53-.68,3.15h7.33Z"/>
      </g>
      <g>
        <polygon class="cls-1" points="138.88 10.56 154.22 25.89 157.66 22.45 138.88 3.67 120.1 22.45 123.54 25.89 138.88 10.56"/>
        <g>
          <polygon class="cls-1" points="151.84 13.5 151.84 0 146.04 0 146.04 7.7 151.84 13.5"/>
          <polygon class="cls-1" points="131.72 8.31 131.72 0 125.92 0 125.92 14.11 131.72 8.31"/>
          <polygon class="cls-1" points="146.04 20.24 146.04 30.54 151.84 30.54 151.84 26.04 146.04 20.24"/>
          <polygon class="cls-1" points="125.92 26.65 125.92 30.54 131.72 30.54 131.72 20.85 125.92 26.65"/>
        </g>
      </g>
    </g>
  </g>
</svg>