<?xml version="1.0" encoding="UTF-8"?>
<svg id="Layer_2" data-name="Layer 2" xmlns="http://www.w3.org/2000/svg" viewBox="0 0 111.59 52">
  <defs>
    <style>
      .cls-1 {
        fill: #fff;
      }
    </style>
  </defs>
  <g id="Layer_1-2" data-name="Layer 1">
    <g>
      <g>
        <path class="cls-1" d="M4.8,12.06H.69c0-2.02.47-3.36,1.41-4.04s2.79-1.02,5.57-1.02c3.02,0,5.07.42,6.13,1.25s1.6,2.42,1.6,4.76v10.99h-4.03l.19-2.3-.11-.02c-.77,1.68-2.56,2.51-5.36,2.51C2.04,24.19,0,22.46,0,19s2.08-5.24,6.24-5.24c2.78,0,4.46.64,5.06,1.92h.07v-2.72c0-1.31-.23-2.18-.69-2.61s-1.39-.64-2.81-.64c-2.05,0-3.08.79-3.08,2.36ZM7.49,16.47c-2.27,0-3.41.79-3.41,2.36,0,1.09.23,1.8.7,2.14s1.45.51,2.95.51c2.45,0,3.67-.83,3.67-2.48s-1.31-2.53-3.92-2.53Z"/>
        <path class="cls-1" d="M34.33,7.19v16.8h-4.03l.23-2.88-.07-.02c-.79,2.06-2.59,3.09-5.41,3.09-3.81,0-5.71-1.9-5.71-5.71V7.19h4.03v10.32c0,1.43.2,2.37.6,2.82s1.22.68,2.48.68c2.58,0,3.87-1.55,3.87-4.64V7.19h4.03Z"/>
        <path class="cls-1" d="M49.12,17.58h4.01v.58l-.25,2.55c-.49,2.32-2.89,3.48-7.21,3.48-3.16,0-5.27-.57-6.31-1.71s-1.56-3.44-1.56-6.9.52-5.65,1.56-6.82,3.07-1.76,6.08-1.76,4.88.42,5.91,1.27,1.55,2.46,1.55,4.84h-3.99c0-1.96-1.13-2.94-3.39-2.94-1.61,0-2.61.31-3.02.93s-.62,2.14-.62,4.57.23,3.82.68,4.42,1.56.91,3.31.91c1.38,0,2.27-.21,2.66-.62s.59-1.35.59-2.8Z"/>
        <path class="cls-1" d="M66.92,7.19v3.06h-6.47v8.44c0,1.56.59,2.34,1.78,2.34,1.3,0,1.95-.94,1.95-2.83v-.67h3.43v.84c0,.77-.02,1.44-.07,1.99-.22,2.57-2.13,3.85-5.73,3.85s-5.38-1.65-5.38-4.94v-9.02h-2.18v-3.06h2.18v-3.76h4.03v3.76h6.47Z"/>
        <path class="cls-1" d="M73.85,0v3.36h-4.03V0h4.03ZM73.85,7.19v16.8h-4.03V7.19h4.03Z"/>
        <path class="cls-1" d="M85.19,7c3.25,0,5.37.52,6.38,1.56s1.51,3.23,1.51,6.57c0,3.73-.49,6.17-1.48,7.33s-3.06,1.74-6.22,1.74c-3.43,0-5.66-.54-6.67-1.62s-1.52-3.45-1.52-7.12.5-5.82,1.49-6.87,3.16-1.58,6.5-1.58ZM85.15,10.18c-1.68,0-2.74.3-3.2.91s-.69,2.01-.69,4.23c0,2.53.22,4.11.65,4.75s1.52.95,3.25.95,2.73-.33,3.17-1,.66-2.27.66-4.82c0-2.14-.23-3.52-.69-4.11s-1.51-.9-3.16-.9Z"/>
        <path class="cls-1" d="M96.44,7.19h3.99l-.16,2.83.09.02c.79-2.03,2.54-3.04,5.27-3.04,3.97,0,5.96,1.85,5.96,5.55v11.44h-4.03v-10.76l-.09-1.18c-.19-1.25-1.17-1.88-2.95-1.88-2.71,0-4.06,1.28-4.06,3.85v9.97h-4.03V7.19Z"/>
      </g>
      <g>
        <polygon class="cls-1" points="14.61 36.43 26.54 48.38 29.22 45.7 14.61 31.07 0 45.7 2.68 48.38 14.61 36.43"/>
        <g>
          <polygon class="cls-1" points="24.69 38.73 24.69 28.21 20.18 28.21 20.18 34.21 24.69 38.73"/>
          <polygon class="cls-1" points="9.04 34.68 9.04 28.21 4.53 28.21 4.53 39.2 9.04 34.68"/>
          <polygon class="cls-1" points="20.18 43.98 20.18 52 24.69 52 24.69 48.49 20.18 43.98"/>
          <polygon class="cls-1" points="4.53 48.97 4.53 52 9.04 52 9.04 44.45 4.53 48.97"/>
        </g>
      </g>
      <g>
        <path class="cls-1" d="M40.43,27.99c3.67,0,6.08.72,7.21,2.17s1.71,4.49,1.71,9.15c0,5.19-.56,8.6-1.67,10.21s-3.46,2.43-7.04,2.43c-3.88,0-6.4-.75-7.54-2.25s-1.72-4.81-1.72-9.92.56-8.11,1.69-9.58,3.58-2.2,7.35-2.2ZM40.39,32.43c-1.89,0-3.1.42-3.62,1.26s-.78,2.8-.78,5.89c0,3.53.25,5.73.74,6.61s1.72,1.32,3.68,1.32,3.09-.47,3.59-1.4.75-3.17.75-6.71c0-2.99-.26-4.9-.78-5.73s-1.71-1.25-3.58-1.25Z"/>
        <path class="cls-1" d="M70.03,28.26v23.42h-4.55l.26-4.02-.08-.02c-.89,2.87-2.93,4.31-6.12,4.31-4.31,0-6.46-2.65-6.46-7.96v-15.73h4.55v14.38c0,1.99.23,3.3.68,3.93s1.38.94,2.8.94c2.92,0,4.37-2.16,4.37-6.47v-12.79h4.55Z"/>
        <path class="cls-1" d="M90.5,34.71h-4.45l-.06-.44c-.09-1.13-.35-1.83-.79-2.11s-1.47-.42-3.13-.42c-2.37,0-3.56.95-3.56,2.84,0,1.29.21,2.06.63,2.3s1.83.44,4.24.59c3.25.2,5.36.73,6.34,1.59s1.47,2.64,1.47,5.32c0,2.86-.65,4.84-1.96,5.94s-3.65,1.65-7.03,1.65-5.47-.5-6.66-1.49-1.79-2.86-1.79-5.58v-.59h4.73c-.07.33-.11.59-.12.78-.19,2.07,1.11,3.11,3.9,3.11s4.31-1.03,4.31-3.09-.9-2.96-2.7-2.96c-4.07,0-6.75-.47-8.04-1.42s-1.94-2.91-1.94-5.9c0-2.68.59-4.49,1.77-5.44s3.45-1.42,6.8-1.42c3.17,0,5.3.46,6.39,1.37s1.64,2.7,1.64,5.36Z"/>
        <path class="cls-1" d="M107.02,44.19h4.57v.91c0,4.57-2.78,6.86-8.35,6.86-3.78,0-6.25-.79-7.41-2.38s-1.75-4.94-1.75-10.07c0-4.56.61-7.62,1.83-9.19s3.6-2.35,7.14-2.35,5.66.76,6.82,2.29,1.73,4.53,1.73,9v1.71h-12.86c-.03.52-.04.87-.04,1.03,0,2.3.29,3.84.86,4.61s1.73,1.15,3.45,1.15,2.76-.22,3.26-.67.76-1.42.76-2.9ZM107.05,37.55l-.02-.93c0-1.86-.26-3.07-.79-3.63s-1.66-.83-3.41-.83-2.8.33-3.31,1-.77,2.13-.77,4.38h8.29Z"/>
      </g>
    </g>
  </g>
</svg>